<svg width="153" height="48" viewBox="0 0 153 48" fill="none" xmlns="http://www.w3.org/2000/svg">
<rect width="153" height="48" rx="8.57142" fill="#0E6146"/>
<path d="M28.708 30V27.228H30.832V30H28.708ZM26.368 30V14.718H28.78V30H26.368ZM30.832 30V27.228C30.952 27.228 31.042 27.354 31.102 27.606C31.162 27.858 31.192 28.188 31.192 28.596C31.192 29.016 31.162 29.358 31.102 29.622C31.042 29.874 30.952 30 30.832 30ZM30.8359 30V27.228H31.7899C32.2819 27.228 32.6539 27.192 32.9059 27.12C33.1579 27.036 33.3259 26.886 33.4099 26.67C33.4939 26.442 33.5359 26.13 33.5359 25.734V20.982H35.9479V25.734C35.9479 26.658 35.7919 27.438 35.4799 28.074C35.1679 28.698 34.7059 29.178 34.0939 29.514C33.4819 29.838 32.7139 30 31.7899 30H30.8359ZM37.6939 30C36.7699 30 36.0019 29.838 35.3899 29.514C34.7779 29.19 34.3159 28.71 34.0039 28.074C33.6919 27.438 33.5359 26.658 33.5359 25.734H35.9479C35.9479 26.13 35.9899 26.442 36.0739 26.67C36.1579 26.886 36.3259 27.036 36.5779 27.12C36.8299 27.192 37.2019 27.228 37.6939 27.228H38.3779V30H37.6939ZM38.3779 30V27.228C38.4979 27.228 38.5879 27.354 38.6479 27.606C38.7079 27.858 38.7379 28.188 38.7379 28.596C38.7379 29.016 38.7079 29.358 38.6479 29.622C38.5879 29.874 38.4979 30 38.3779 30ZM30.8359 30C30.7159 30 30.6259 29.874 30.5659 29.622C30.5059 29.358 30.4759 29.016 30.4759 28.596C30.4759 28.176 30.5059 27.846 30.5659 27.606C30.6259 27.354 30.7159 27.228 30.8359 27.228V30ZM34.6519 18.768C34.2439 18.768 33.9019 18.63 33.6259 18.354C33.3499 18.078 33.2119 17.736 33.2119 17.328C33.2119 16.908 33.3499 16.566 33.6259 16.302C33.9019 16.026 34.2439 15.888 34.6519 15.888C35.0719 15.888 35.4139 16.026 35.6779 16.302C35.9539 16.566 36.0919 16.908 36.0919 17.328C36.0919 17.736 35.9539 18.078 35.6779 18.354C35.4139 18.63 35.0719 18.768 34.6519 18.768ZM38.377 30V27.228H42.085C42.529 27.228 43.009 27.162 43.525 27.03C44.041 26.886 44.551 26.706 45.055 26.49C45.559 26.262 46.015 26.016 46.423 25.752C46.843 25.476 47.173 25.212 47.413 24.96C47.665 24.708 47.791 24.486 47.791 24.294C47.791 24.102 47.659 23.922 47.395 23.754C47.143 23.586 46.783 23.448 46.315 23.34C45.847 23.22 45.307 23.16 44.695 23.16C44.191 23.16 43.711 23.202 43.255 23.286C42.799 23.37 42.325 23.502 41.833 23.682L41.185 24.438L39.763 23.808L41.401 21.108C41.893 20.952 42.421 20.82 42.985 20.712C43.549 20.592 44.173 20.532 44.857 20.532C45.925 20.532 46.855 20.67 47.647 20.946C48.451 21.222 49.075 21.612 49.519 22.116C49.975 22.608 50.203 23.19 50.203 23.862C50.203 24.414 50.053 24.948 49.753 25.464C49.453 25.98 49.045 26.466 48.529 26.922C48.025 27.378 47.455 27.798 46.819 28.182C46.183 28.554 45.523 28.878 44.839 29.154C44.167 29.418 43.507 29.628 42.859 29.784C42.223 29.928 41.647 30 41.131 30H38.377ZM48.223 30C46.795 30 45.505 29.742 44.353 29.226C43.213 28.71 42.247 27.99 41.455 27.066C40.663 26.13 40.099 25.044 39.763 23.808L41.671 22.746C41.827 23.646 42.151 24.438 42.643 25.122C43.147 25.794 43.789 26.316 44.569 26.688C45.349 27.048 46.213 27.228 47.161 27.228H51.841V30H48.223ZM51.841 30V27.228C51.961 27.228 52.051 27.354 52.111 27.606C52.171 27.858 52.201 28.188 52.201 28.596C52.201 29.016 52.171 29.358 52.111 29.622C52.051 29.874 51.961 30 51.841 30ZM38.377 30C38.257 30 38.167 29.874 38.107 29.622C38.047 29.358 38.017 29.016 38.017 28.596C38.017 28.176 38.047 27.846 38.107 27.606C38.167 27.354 38.257 27.228 38.377 27.228V30ZM51.8418 30V27.228C52.3698 27.228 52.8138 27.138 53.1738 26.958C53.5458 26.766 53.8818 26.496 54.1818 26.148C54.4818 25.788 54.7818 25.362 55.0818 24.87C55.3818 24.414 55.6938 23.958 56.0178 23.502C56.3538 23.046 56.7198 22.626 57.1158 22.242C57.5238 21.858 57.9738 21.552 58.4658 21.324C58.9698 21.096 59.5338 20.982 60.1578 20.982C60.8178 20.982 61.3938 21.12 61.8858 21.396C62.3778 21.672 62.7798 22.05 63.0918 22.53C63.4158 22.998 63.6558 23.544 63.8118 24.168C63.9798 24.78 64.0638 25.428 64.0638 26.112C64.0638 26.76 63.9798 27.474 63.8118 28.254C63.6438 29.022 63.3858 29.736 63.0378 30.396L60.8058 29.298C61.0818 28.818 61.2918 28.308 61.4358 27.768C61.5798 27.216 61.6518 26.664 61.6518 26.112C61.6518 25.284 61.5198 24.678 61.2558 24.294C61.0038 23.91 60.6318 23.718 60.1398 23.718C59.8278 23.718 59.5158 23.808 59.2038 23.988C58.8918 24.156 58.5618 24.438 58.2138 24.834C57.8778 25.218 57.4998 25.74 57.0798 26.4C56.5518 27.228 56.0358 27.906 55.5318 28.434C55.0278 28.962 54.4818 29.358 53.8938 29.622C53.3178 29.874 52.6338 30 51.8418 30ZM62.9118 27.624L63.0378 30.396C61.8858 30.456 60.8898 30.444 60.0498 30.36C59.2098 30.288 58.4718 30.144 57.8358 29.928C57.1998 29.712 56.6358 29.436 56.1438 29.1C55.6638 28.752 55.2078 28.362 54.7758 27.93L56.4138 26.184C56.8338 26.616 57.3318 26.952 57.9078 27.192C58.4838 27.42 59.1798 27.564 59.9958 27.624C60.8118 27.684 61.7838 27.684 62.9118 27.624ZM51.8418 30C51.7218 30 51.6318 29.874 51.5718 29.622C51.5118 29.358 51.4818 29.016 51.4818 28.596C51.4818 28.176 51.5118 27.846 51.5718 27.606C51.6318 27.354 51.7218 27.228 51.8418 27.228V30ZM84.6177 30C83.6937 30 82.9257 29.838 82.3137 29.514C81.7017 29.19 81.2397 28.71 80.9277 28.074C80.6157 27.438 80.4597 26.658 80.4597 25.734H82.8717C82.8717 26.13 82.9137 26.442 82.9977 26.67C83.0817 26.886 83.2497 27.036 83.5017 27.12C83.7537 27.192 84.1257 27.228 84.6177 27.228H85.3017V30H84.6177ZM76.7517 33.744C75.8637 33.744 75.0477 33.576 74.3037 33.24C73.5597 32.916 72.9117 32.442 72.3597 31.818C71.8197 31.206 71.3997 30.474 71.0997 29.622C70.7997 28.758 70.6497 27.792 70.6497 26.724C70.6497 26.232 70.6857 25.74 70.7577 25.248C70.8297 24.756 70.9197 24.276 71.0277 23.808L73.3317 24.24C73.2477 24.672 73.1757 25.092 73.1157 25.5C73.0677 25.908 73.0437 26.304 73.0437 26.688C73.0437 27.6 73.1817 28.374 73.4577 29.01C73.7457 29.646 74.1597 30.126 74.6997 30.45C75.2517 30.786 75.9177 30.954 76.6977 30.954C77.4777 30.954 78.1497 30.786 78.7137 30.45C79.2777 30.126 79.7097 29.646 80.0097 29.01C80.3097 28.374 80.4597 27.6 80.4597 26.688V14.718H82.8717V26.688C82.8717 27.756 82.7157 28.722 82.4037 29.586C82.1037 30.45 81.6777 31.188 81.1257 31.8C80.5857 32.424 79.9437 32.904 79.1997 33.24C78.4557 33.576 77.6397 33.744 76.7517 33.744ZM85.2837 30V27.228C85.4037 27.228 85.4937 27.354 85.5537 27.606C85.6137 27.858 85.6437 28.188 85.6437 28.596C85.6437 29.016 85.6137 29.358 85.5537 29.622C85.4937 29.874 85.4037 30 85.2837 30ZM100.791 30V25.572C100.791 24.864 100.671 24.276 100.431 23.808C100.191 23.328 99.8434 22.968 99.3874 22.728C98.9434 22.488 98.4034 22.368 97.7674 22.368C97.2274 22.368 96.7054 22.464 96.2014 22.656C95.6974 22.848 95.2294 23.124 94.7974 23.484C94.3774 23.832 94.0054 24.258 93.6814 24.762C93.3574 25.266 93.1054 25.836 92.9254 26.472C92.7454 27.096 92.6554 27.774 92.6554 28.506H90.5854C90.5854 27.99 90.6334 27.414 90.7294 26.778C90.8254 26.142 90.9814 25.494 91.1974 24.834C91.4254 24.174 91.7194 23.538 92.0794 22.926C92.4394 22.302 92.8774 21.75 93.3934 21.27C93.9214 20.778 94.5394 20.388 95.2474 20.1C95.9554 19.812 96.7654 19.668 97.6774 19.668C98.6254 19.668 99.4414 19.824 100.125 20.136C100.821 20.448 101.397 20.88 101.853 21.432C102.309 21.984 102.645 22.614 102.861 23.322C103.077 24.03 103.185 24.78 103.185 25.572V30H100.791ZM85.2754 30V27.228H86.2294C86.7214 27.228 87.0934 27.192 87.3454 27.12C87.5974 27.036 87.7654 26.886 87.8494 26.67C87.9334 26.442 87.9754 26.13 87.9754 25.734V21.864H90.3874V25.734C90.3874 26.658 90.2314 27.438 89.9194 28.074C89.6074 28.71 89.1454 29.19 88.5334 29.514C87.9214 29.838 87.1534 30 86.2294 30H85.2754ZM92.1334 30C91.3054 30 90.6154 29.838 90.0634 29.514C89.5114 29.19 89.0974 28.71 88.8214 28.074C88.5454 27.438 88.4074 26.658 88.4074 25.734H90.3874C90.3874 26.13 90.4294 26.442 90.5134 26.67C90.5974 26.886 90.7654 27.036 91.0174 27.12C91.2694 27.192 91.6414 27.228 92.1334 27.228H103.185V30H92.1334ZM85.2754 30C85.1554 30 85.0654 29.874 85.0054 29.622C84.9454 29.358 84.9154 29.016 84.9154 28.596C84.9154 28.176 84.9454 27.846 85.0054 27.606C85.0654 27.354 85.1554 27.228 85.2754 27.228V30ZM105.575 30V14.718H107.987V30H105.575ZM118.159 30V27.228H120.823V30H118.159ZM120.823 30V27.228C120.943 27.228 121.033 27.354 121.093 27.606C121.153 27.858 121.183 28.188 121.183 28.596C121.183 29.016 121.153 29.358 121.093 29.622C121.033 29.874 120.943 30 120.823 30ZM110.833 34.986V32.214H114.163C114.955 32.214 115.507 32.076 115.819 31.8C116.143 31.524 116.305 31.104 116.305 30.54V21.45H118.717V30.54C118.717 31.476 118.531 32.274 118.159 32.934C117.787 33.606 117.259 34.116 116.575 34.464C115.891 34.812 115.087 34.986 114.163 34.986H110.833ZM115.009 30C114.013 30 113.143 29.79 112.399 29.37C111.667 28.95 111.097 28.386 110.689 27.678C110.281 26.958 110.077 26.172 110.077 25.32C110.077 24.624 110.203 23.982 110.455 23.394C110.707 22.806 111.061 22.296 111.517 21.864C111.985 21.432 112.519 21.096 113.119 20.856C113.719 20.604 114.361 20.478 115.045 20.478C115.717 20.478 116.371 20.58 117.007 20.784C117.643 20.988 118.213 21.21 118.717 21.45L117.709 23.916C116.713 23.376 115.825 23.106 115.045 23.106C114.541 23.106 114.097 23.208 113.713 23.412C113.329 23.616 113.023 23.886 112.795 24.222C112.579 24.546 112.471 24.912 112.471 25.32C112.471 25.692 112.573 26.04 112.777 26.364C112.981 26.676 113.269 26.922 113.641 27.102C114.025 27.282 114.481 27.372 115.009 27.372H117.763V30H115.009ZM123.464 20.982H125.858V30H120.818V27.228H123.464V20.982ZM120.818 30C120.698 30 120.608 29.874 120.548 29.622C120.488 29.37 120.458 29.028 120.458 28.596C120.458 28.176 120.488 27.846 120.548 27.606C120.608 27.354 120.698 27.228 120.818 27.228V30ZM126.074 19.056C125.726 19.056 125.432 18.942 125.192 18.714C124.964 18.486 124.85 18.192 124.85 17.832C124.85 17.472 124.964 17.178 125.192 16.95C125.432 16.722 125.726 16.608 126.074 16.608C126.422 16.608 126.71 16.722 126.938 16.95C127.178 17.178 127.298 17.472 127.298 17.832C127.298 18.192 127.178 18.486 126.938 18.714C126.71 18.942 126.422 19.056 126.074 19.056ZM123.266 19.056C122.918 19.056 122.624 18.942 122.384 18.714C122.156 18.486 122.042 18.192 122.042 17.832C122.042 17.472 122.156 17.178 122.384 16.95C122.624 16.722 122.918 16.608 123.266 16.608C123.614 16.608 123.902 16.722 124.13 16.95C124.37 17.178 124.49 17.472 124.49 17.832C124.49 18.192 124.37 18.486 124.13 18.714C123.902 18.942 123.614 19.056 123.266 19.056Z" fill="white"/>
</svg>
