<svg width="24" height="24" viewBox="0 0 24 24" fill="none" xmlns="http://www.w3.org/2000/svg">
<path d="M19.2 11.136C19.2 10.128 18.384 9.6 17.28 9.6H14.064C14.304 8.736 14.4 7.92 14.4 7.2C14.4 4.416 13.632 3.84 12.96 3.84C12.528 3.84 12.192 3.888 11.76 4.128C11.616 4.224 11.568 4.32 11.52 4.464L11.04 7.056C10.512 8.4 9.216 9.6 8.16 10.416V17.28C8.544 17.28 8.928 17.472 9.408 17.712C9.936 17.952 10.464 18.24 11.04 18.24H15.6C16.56 18.24 17.28 17.472 17.28 16.8C17.28 16.656 17.28 16.56 17.232 16.464C17.808 16.224 18.24 15.744 18.24 15.12C18.24 14.832 18.192 14.592 18.096 14.352C18.48 14.112 18.816 13.68 18.816 13.2C18.816 12.912 18.672 12.624 18.528 12.384C18.912 12.096 19.2 11.616 19.2 11.136ZM18.192 11.136C18.192 11.76 17.568 11.808 17.472 12.096C17.376 12.432 17.856 12.528 17.856 13.104C17.856 13.68 17.136 13.68 17.04 14.016C16.944 14.4 17.28 14.496 17.28 15.072V15.168C17.184 15.648 16.464 15.696 16.32 15.888C16.176 16.128 16.32 16.224 16.32 16.752C16.32 17.04 15.984 17.232 15.6 17.232H11.04C10.656 17.232 10.272 17.04 9.792 16.8C9.408 16.608 9.024 16.416 8.64 16.32V11.28C9.84 10.368 11.376 9.024 11.952 7.344V7.248L12.384 4.848C12.576 4.8 12.72 4.8 12.96 4.8C13.056 4.8 13.44 5.376 13.44 7.2C13.44 7.92 13.296 8.688 13.056 9.6H12.96C12.672 9.6 12.48 9.792 12.48 10.08C12.48 10.368 12.672 10.56 12.96 10.56H17.28C17.76 10.56 18.192 10.8 18.192 11.136Z" fill="#737373"/>
<path d="M7.68 18.24H4.8C4.272 18.24 3.84 17.808 3.84 17.28V10.56C3.84 10.032 4.272 9.6 4.8 9.6H7.68C8.208 9.6 8.64 10.032 8.64 10.56V17.28C8.64 17.808 8.208 18.24 7.68 18.24ZM4.8 10.56V17.28H7.68V10.56H4.8Z" fill="#737373"/>
</svg>
