<svg xmlns="http://www.w3.org/2000/svg" width="16" height="16" viewBox="0 0 16 16" fill="none">
  <path fill-rule="evenodd" clip-rule="evenodd" d="M3.54129 7.174C5.48662 3.72467 6.45929 2 7.99996 2C9.53996 2 10.5133 3.72467 12.4586 7.174L12.7013 7.604C14.318 10.4707 15.1266 11.904 14.396 12.952C13.6653 14 11.8573 14 8.24262 14H7.75729C4.14262 14 2.33462 14 1.60396 12.952C0.87329 11.904 1.68196 10.4707 3.29862 7.604L3.54129 7.174ZM7.99996 4.83333C8.13256 4.83333 8.25974 4.88601 8.35351 4.97978C8.44728 5.07355 8.49996 5.20073 8.49996 5.33333V8.66667C8.49996 8.79927 8.44728 8.92645 8.35351 9.02022C8.25974 9.11399 8.13256 9.16667 7.99996 9.16667C7.86735 9.16667 7.74017 9.11399 7.6464 9.02022C7.55264 8.92645 7.49996 8.79927 7.49996 8.66667V5.33333C7.49996 5.20073 7.55264 5.07355 7.6464 4.97978C7.74017 4.88601 7.86735 4.83333 7.99996 4.83333ZM7.99996 11.3333C8.17677 11.3333 8.34634 11.2631 8.47136 11.1381C8.59639 11.013 8.66662 10.8435 8.66662 10.6667C8.66662 10.4899 8.59639 10.3203 8.47136 10.1953C8.34634 10.0702 8.17677 10 7.99996 10C7.82315 10 7.65358 10.0702 7.52855 10.1953C7.40353 10.3203 7.33329 10.4899 7.33329 10.6667C7.33329 10.8435 7.40353 11.013 7.52855 11.1381C7.65358 11.2631 7.82315 11.3333 7.99996 11.3333Z" fill="#FF0E0E"/>
</svg>