<svg width="16" height="16" viewBox="0 0 16 16" fill="none" xmlns="http://www.w3.org/2000/svg">
<path d="M5.66667 6.2193C6.17778 6.2193 6.69712 6.2833 7.22467 6.4113C7.75223 6.5393 8.24112 6.73641 8.69134 7.00263C9.14156 7.2693 9.52778 7.60263 9.85001 8.00263C10.1722 8.40263 10.3889 8.87486 10.5 9.4193C10.5445 9.63041 10.5 9.81641 10.3667 9.9773C10.2333 10.1382 10.0611 10.2189 9.85001 10.2193H1.48334C1.27223 10.2193 1.10001 10.1386 0.966674 9.9773C0.833341 9.81597 0.788896 9.62997 0.833341 9.4193C0.944452 8.87486 1.16401 8.40263 1.49201 8.00263C1.82001 7.60263 2.2089 7.2693 2.65867 7.00263C3.10845 6.73597 3.59445 6.53863 4.11667 6.41063C4.6389 6.28263 5.15556 6.21885 5.66667 6.2193ZM1.33334 12.886C1.14445 12.886 0.986007 12.822 0.858007 12.694C0.730007 12.566 0.66623 12.4077 0.666674 12.2193C0.666674 12.0304 0.730674 11.872 0.858674 11.744C0.986674 11.616 1.1449 11.5522 1.33334 11.5526H10C10.1889 11.5526 10.3473 11.6166 10.4753 11.7446C10.6033 11.8726 10.6671 12.0309 10.6667 12.2193C10.6667 12.4082 10.6027 12.5666 10.4747 12.6946C10.3467 12.8226 10.1885 12.8864 10 12.886H1.33334ZM1.33334 15.5526C1.14445 15.5526 0.986007 15.4886 0.858007 15.3606C0.730007 15.2326 0.66623 15.0744 0.666674 14.886C0.666674 14.6971 0.730674 14.5386 0.858674 14.4106C0.986674 14.2826 1.1449 14.2189 1.33334 14.2193H10C10.1889 14.2193 10.3473 14.2833 10.4753 14.4113C10.6033 14.5393 10.6671 14.6975 10.6667 14.886C10.6667 15.0749 10.6027 15.2333 10.4747 15.3613C10.3467 15.4893 10.1885 15.5531 10 15.5526H1.33334ZM12 15.5526V10.2193C12 8.95263 11.5667 7.85819 10.7 6.93597C9.83334 6.01374 8.77223 5.39708 7.51667 5.08597L7.41667 4.30263C7.39445 4.10263 7.45001 3.92774 7.58334 3.77797C7.71667 3.62819 7.88334 3.55308 8.08334 3.55263H10.6667V1.55263C10.6667 1.36374 10.7307 1.2053 10.8587 1.0773C10.9867 0.949299 11.1449 0.885521 11.3333 0.885966C11.5222 0.885966 11.6807 0.949966 11.8087 1.07797C11.9367 1.20597 12.0005 1.36419 12 1.55263V3.55263H14.6C14.8 3.55263 14.9667 3.62485 15.1 3.7693C15.2333 3.91374 15.2889 4.08597 15.2667 4.28597L14.2 14.9526C14.1778 15.1193 14.1056 15.2611 13.9833 15.378C13.8611 15.4949 13.7111 15.5531 13.5333 15.5526H12Z" fill="#557A46"/>
</svg>
