<svg width="14" height="13" viewBox="0 0 14 13" fill="none" xmlns="http://www.w3.org/2000/svg">
<path d="M5.66667 0.5L4.33334 1.83333V3.16667H2.33334C1.56667 3.16667 1.08 3.83333 1 4.5L0.333337 11.1667C0.253337 11.8333 0.693337 12.5 1.66667 12.5H12.3333C13.3067 12.5 13.7467 11.8333 13.6667 11.1667L13 4.5C12.92 3.83333 12.3733 3.16667 11.6667 3.16667H9.66667V1.83333L8.33334 0.5H5.66667ZM5.66667 1.83333H8.33334V3.16667H5.66667V1.83333ZM6.33334 5.16667H7.66667V7.16667H9.66667V8.5H7.66667V10.5H6.33334V8.5H4.33334V7.16667H6.33334V5.16667Z" fill="#FF0000"/>
</svg>
