<svg width="16" height="17" viewBox="0 0 16 17" fill="none" xmlns="http://www.w3.org/2000/svg">
<path d="M10.6416 1.29539L10.04 4.08833L12.2481 1.29539H10.6416ZM15.3692 1.87933L11.627 6.02289L15.3692 4.52583V1.87933ZM5.79297 3.28851C5.77259 3.28883 5.75256 3.28958 5.73241 3.29048C5.43522 3.30367 5.15834 3.37283 4.92969 3.52776C4.39956 3.88689 4.57672 4.68889 4.21781 5.49945C2.99156 8.2687 1.75281 10.2771 0.658188 11.7592V14.9897C2.58263 14.3227 5.44891 13.6315 9.63766 13.4926C10.5166 13.4635 11.1917 13.8858 11.7187 13.5288C13.0199 12.6473 12.5488 9.70167 10.6787 6.94089C10.5618 6.76839 10.453 6.59276 10.331 6.43014C8.86853 4.47933 7.07713 3.2713 5.79291 3.28858L5.79297 3.28851ZM5.625 4.05414C5.41388 4.4883 5.61213 5.42476 6.12306 6.57758C5.96181 5.99551 5.97656 5.57314 6.20703 5.43305C6.71094 5.12673 8.05247 6.28226 9.20312 8.01411C10.3538 9.74589 10.8779 11.3982 10.3741 11.7045C10.1667 11.8305 9.8175 11.7088 9.39844 11.4018C10.2646 12.2796 11.0464 12.7927 11.5264 12.766C11.4706 12.8651 11.4115 12.9611 11.3232 13.021C10.4826 13.5905 8.45591 12.0756 6.80275 9.6352C5.14956 7.19476 4.49431 4.74958 5.33494 4.18011C5.42109 4.1218 5.51569 4.06992 5.625 4.05414ZM15.3692 7.66548L12.7227 8.52289L15.3692 8.92426V7.66548Z" fill="#FAA300"/>
</svg>
