<svg width="24" height="24" viewBox="0 0 24 24" fill="none" xmlns="http://www.w3.org/2000/svg">
<path d="M18.436 20.937H5.56201C4.89897 20.937 4.26309 20.6736 3.79424 20.2048C3.3254 19.7359 3.06201 19.1 3.06201 18.437V5.563C3.06201 4.89996 3.3254 4.26408 3.79424 3.79524C4.26309 3.3264 4.89897 3.063 5.56201 3.063H18.436C19.0991 3.063 19.7349 3.3264 20.2038 3.79524C20.6726 4.26408 20.936 4.89996 20.936 5.563V18.437C20.936 19.1 20.6726 19.7359 20.2038 20.2048C19.7349 20.6736 19.0991 20.937 18.436 20.937ZM5.56201 4.063C5.16419 4.063 4.78266 4.22104 4.50135 4.50234C4.22005 4.78365 4.06201 5.16518 4.06201 5.563V18.437C4.06201 18.8348 4.22005 19.2164 4.50135 19.4977C4.78266 19.779 5.16419 19.937 5.56201 19.937H18.436C18.8338 19.937 19.2154 19.779 19.4967 19.4977C19.778 19.2164 19.936 18.8348 19.936 18.437V5.563C19.936 5.16518 19.778 4.78365 19.4967 4.50234C19.2154 4.22104 18.8338 4.063 18.436 4.063H5.56201Z" fill="black"/>
<path d="M6.54399 8.283C6.4119 8.28071 6.28566 8.22814 6.19099 8.136C6.09726 8.04223 6.0446 7.91508 6.0446 7.7825C6.0446 7.64992 6.09726 7.52276 6.19099 7.429C6.28542 7.33661 6.4119 7.2843 6.54399 7.283H7.54999C7.682 7.28471 7.80834 7.33696 7.90299 7.429C7.94957 7.47543 7.98654 7.53061 8.01176 7.59135C8.03699 7.6521 8.04998 7.71722 8.04999 7.783C8.04999 7.91561 7.99731 8.04278 7.90355 8.13655C7.80978 8.23032 7.6826 8.283 7.54999 8.283H6.54399ZM6.54399 12.5C6.41213 12.4976 6.28604 12.4454 6.19099 12.354C6.14443 12.3076 6.10749 12.2524 6.08228 12.1916C6.05707 12.1309 6.0441 12.0658 6.0441 12C6.0441 11.9342 6.05707 11.8691 6.08228 11.8084C6.10749 11.7476 6.14443 11.6924 6.19099 11.646C6.28565 11.554 6.41198 11.5017 6.54399 11.5H7.54999C7.6819 11.5022 7.80805 11.5544 7.90299 11.646C7.94956 11.6924 7.9865 11.7476 8.0117 11.8084C8.03691 11.8691 8.04989 11.9342 8.04989 12C8.04989 12.0658 8.03691 12.1309 8.0117 12.1916C7.9865 12.2524 7.94956 12.3076 7.90299 12.354C7.80834 12.446 7.682 12.4983 7.54999 12.5H6.54399ZM6.54399 16.72C6.4119 16.7177 6.28566 16.6651 6.19099 16.573C6.09726 16.4792 6.0446 16.3521 6.0446 16.2195C6.0446 16.0869 6.09726 15.9598 6.19099 15.866C6.28565 15.774 6.41198 15.7217 6.54399 15.72H7.54999C7.682 15.7217 7.80834 15.774 7.90299 15.866C7.94957 15.9124 7.98654 15.9676 8.01176 16.0284C8.03699 16.0891 8.04998 16.1542 8.04999 16.22C8.04999 16.3526 7.99731 16.4798 7.90355 16.5736C7.80978 16.6673 7.6826 16.72 7.54999 16.72H6.54399ZM10.554 8.281C10.4214 8.281 10.2942 8.22832 10.2004 8.13455C10.1067 8.04078 10.054 7.91361 10.054 7.781C10.054 7.64839 10.1067 7.52121 10.2004 7.42744C10.2942 7.33368 10.4214 7.281 10.554 7.281H17.454C17.5866 7.281 17.7138 7.33368 17.8075 7.42744C17.9013 7.52121 17.954 7.64839 17.954 7.781C17.954 7.91361 17.9013 8.04078 17.8075 8.13455C17.7138 8.22832 17.5866 8.281 17.454 8.281H10.554ZM10.554 12.5C10.4214 12.5 10.2942 12.4473 10.2004 12.3536C10.1067 12.2598 10.054 12.1326 10.054 12C10.054 11.8674 10.1067 11.7402 10.2004 11.6464C10.2942 11.5527 10.4214 11.5 10.554 11.5H17.454C17.5866 11.5 17.7138 11.5527 17.8075 11.6464C17.9013 11.7402 17.954 11.8674 17.954 12C17.954 12.1326 17.9013 12.2598 17.8075 12.3536C17.7138 12.4473 17.5866 12.5 17.454 12.5H10.554ZM10.554 16.718C10.4214 16.718 10.2942 16.6653 10.2004 16.5716C10.1067 16.4778 10.054 16.3506 10.054 16.218C10.054 16.0854 10.1067 15.9582 10.2004 15.8644C10.2942 15.7707 10.4214 15.718 10.554 15.718H17.454C17.5866 15.718 17.7138 15.7707 17.8075 15.8644C17.9013 15.9582 17.954 16.0854 17.954 16.218C17.954 16.3506 17.9013 16.4778 17.8075 16.5716C17.7138 16.6653 17.5866 16.718 17.454 16.718H10.554Z" fill="black"/>
</svg>
