<svg width="141" height="43" viewBox="0 0 141 43" fill="none" xmlns="http://www.w3.org/2000/svg">
<path d="M2.14463 33.3095C0.960181 33.3095 0 32.3493 0 31.1649V15.8198C0 14.5697 1.01337 13.5564 2.26343 13.5564H2.50333C3.29647 13.5564 4.03175 13.9715 4.44143 14.6507L11.6708 26.6349C11.8992 27.0135 11.6265 27.4964 11.1844 27.4964C10.7441 27.4964 10.4712 27.0172 10.6958 26.6386L17.7974 14.6651C18.2051 13.9778 18.945 13.5564 19.7442 13.5564H19.9512C21.1987 13.5564 22.211 14.5658 22.2146 15.8133L22.2585 31.1595C22.2618 32.3459 21.301 33.3095 20.1146 33.3095C18.9324 33.3095 17.9733 32.3525 17.9708 31.1702L17.9477 20.4181C17.9474 20.2598 18.0756 20.1313 18.2339 20.1313C18.4558 20.1313 18.5933 20.3731 18.4797 20.5639L12.6639 30.3315C12.3353 30.8832 11.7406 31.2213 11.0985 31.2213C10.4624 31.2213 9.87234 30.8896 9.54183 30.3461L3.64892 20.6561C3.50898 20.4259 3.67463 20.1313 3.94395 20.1313C4.13465 20.1313 4.28925 20.2859 4.28925 20.4766V31.1649C4.28925 32.3493 3.32907 33.3095 2.14463 33.3095Z" fill="black"/>
<path d="M33.8647 33.5352C32.2468 33.5352 30.8077 33.1966 29.5472 32.5194C28.3056 31.8421 27.318 30.9203 26.5843 29.7539C25.8694 28.5687 25.512 27.2236 25.512 25.7186C25.512 24.1948 25.8694 22.8497 26.5843 21.6834C27.318 20.4982 28.3056 19.5764 29.5472 18.9179C30.8077 18.2407 32.2468 17.9021 33.8647 17.9021C35.4638 17.9021 36.8935 18.2407 38.154 18.9179C39.4144 19.5764 40.4021 20.4888 41.1169 21.6551C41.8318 22.8215 42.1892 24.176 42.1892 25.7186C42.1892 27.2236 41.8318 28.5687 41.1169 29.7539C40.4021 30.9203 39.4144 31.8421 38.154 32.5194C36.8935 33.1966 35.4638 33.5352 33.8647 33.5352ZM33.8647 29.9232C34.5984 29.9232 35.2568 29.7539 35.84 29.4153C36.4232 29.0767 36.8841 28.597 37.2227 27.9761C37.5614 27.3365 37.7307 26.584 37.7307 25.7186C37.7307 24.8345 37.5614 24.082 37.2227 23.4611C36.8841 22.8403 36.4232 22.3606 35.84 22.022C35.2568 21.6834 34.5984 21.5141 33.8647 21.5141C33.131 21.5141 32.4726 21.6834 31.8894 22.022C31.3062 22.3606 30.8359 22.8403 30.4785 23.4611C30.1398 24.082 29.9705 24.8345 29.9705 25.7186C29.9705 26.584 30.1398 27.3365 30.4785 27.9761C30.8359 28.597 31.3062 29.0767 31.8894 29.4153C32.4726 29.7539 33.131 29.9232 33.8647 29.9232Z" fill="black"/>
<path d="M50.2393 33.5352C48.9412 33.5352 47.6902 33.3847 46.4862 33.0837C45.9349 32.935 45.4366 32.7699 44.9911 32.5886C44.1914 32.2631 43.9317 31.3228 44.2952 30.5397C44.7398 29.5821 45.9288 29.2317 46.9216 29.5909C47.1361 29.6685 47.3578 29.7417 47.5867 29.8104C48.5462 30.0737 49.4868 30.2054 50.4086 30.2054C51.4245 30.2054 52.1394 30.0831 52.5532 29.8386C52.9859 29.594 53.2023 29.2554 53.2023 28.8227C53.2023 28.4653 53.033 28.2019 52.6943 28.0326C52.3745 27.8445 51.9418 27.7034 51.3963 27.6093C50.8507 27.5152 50.2487 27.4212 49.5903 27.3271C48.9506 27.2331 48.3016 27.1108 47.6432 26.9603C46.9847 26.791 46.3827 26.5464 45.8372 26.2266C45.2916 25.9068 44.8495 25.4741 44.5109 24.9285C44.1911 24.383 44.0312 23.6775 44.0312 22.8121C44.0312 21.8527 44.304 21.0061 44.8495 20.2724C45.4139 19.5387 46.2228 18.965 47.2763 18.5511C48.3298 18.1184 49.5903 17.9021 51.0576 17.9021C52.0923 17.9021 53.1458 18.0149 54.2181 18.2407C54.6729 18.3364 55.0956 18.4508 55.4861 18.5838C56.3237 18.869 56.6142 19.8361 56.2388 20.6374C55.8059 21.5615 54.6732 21.8818 53.6913 21.6039C53.5287 21.5579 53.3657 21.5185 53.2023 21.4858C52.4686 21.3165 51.7537 21.2319 51.0576 21.2319C50.0794 21.2319 49.3645 21.3636 48.913 21.6269C48.4615 21.8903 48.2358 22.2289 48.2358 22.6428C48.2358 23.0191 48.3957 23.3012 48.7155 23.4894C49.0541 23.6775 49.4962 23.828 50.0418 23.9409C50.5873 24.0537 51.1799 24.1572 51.8195 24.2513C52.478 24.3265 53.1364 24.4488 53.7949 24.6181C54.4533 24.7874 55.0459 25.032 55.5726 25.3518C56.1182 25.6528 56.5603 26.0761 56.8989 26.6216C57.2375 27.1484 57.4069 27.8445 57.4069 28.7098C57.4069 29.6505 57.1247 30.4876 56.5603 31.2213C55.9959 31.9362 55.1776 32.5006 54.1053 32.9144C53.0518 33.3283 51.7631 33.5352 50.2393 33.5352Z" fill="black"/>
<path d="M71.4951 33.3095C70.3574 33.3095 69.4351 32.3872 69.4351 31.2495V30.7004C69.4351 30.467 69.3871 30.2361 69.294 30.022C69.2009 29.808 69.1529 29.577 69.1529 29.3436V24.3924C69.1529 23.4517 68.8613 22.7181 68.2781 22.1913C67.7138 21.6646 66.839 21.4012 65.6538 21.4012C64.8448 21.4012 64.0453 21.5329 63.2552 21.7962C63.1859 21.8182 63.1176 21.8409 63.0501 21.8644C62.0639 22.2077 60.8352 21.9465 60.3579 21.0176C59.9805 20.2829 60.1981 19.3685 60.9455 19.0169C61.4777 18.7666 62.0595 18.5549 62.6908 18.3818C63.8572 18.062 65.0424 17.9021 66.2464 17.9021C68.5603 17.9021 70.3569 18.4476 71.6362 19.5387C72.9154 20.6299 73.555 22.3324 73.555 24.6463V31.2495C73.555 32.3872 72.6328 33.3095 71.4951 33.3095ZM64.8072 33.5352C63.622 33.5352 62.6062 33.3377 61.7596 32.9426C60.913 32.5288 60.264 31.9738 59.8125 31.2777C59.361 30.5817 59.1353 29.801 59.1353 28.9356C59.1353 28.0326 59.3516 27.2425 59.7843 26.5652C60.2358 25.888 60.9413 25.3612 61.9007 24.985C62.8601 24.5899 64.1112 24.3924 65.6538 24.3924H68.4051C69.1142 24.3924 69.6891 24.9672 69.6891 25.6763C69.6891 26.3854 69.1142 26.9603 68.4051 26.9603H66.1335C65.0988 26.9603 64.3839 27.1296 63.9889 27.4682C63.6126 27.8068 63.4245 28.2301 63.4245 28.7381C63.4245 29.3024 63.6408 29.7539 64.0735 30.0926C64.525 30.4124 65.1364 30.5723 65.9078 30.5723C66.6414 30.5723 67.2999 30.403 67.8831 30.0643C67.9199 30.0418 67.956 30.0186 67.9916 29.9948C68.5286 29.6346 69.5536 29.7143 69.7581 30.3278C69.8049 30.4682 69.8069 30.6207 69.7542 30.7591C69.4219 31.6319 68.864 32.3033 68.0806 32.7733C67.234 33.2813 66.1429 33.5352 64.8072 33.5352Z" fill="black"/>
<path d="M57.0171 38.3692L68.4182 43C73.4362 42.9265 77.4764 41.5759 80.5388 38.9481C83.6012 36.3938 85.1325 33.0953 85.1325 29.0526C85.1325 27.8397 85.031 26.7096 84.8281 25.6622C84.6251 24.6147 84.33 23.6224 83.9425 22.6853C83.4813 21.5643 82.9186 20.4434 82.2545 19.3224C81.5719 18.1831 80.7325 16.906 79.7363 15.491C81.0277 15.0868 82.0516 14.4712 82.808 13.6442C83.5643 12.8173 83.9425 11.9353 83.9425 10.9981C83.9425 10.6673 83.8595 10.2079 83.6935 9.61987C83.509 9.01346 83.2692 8.36111 82.974 7.66282C82.6604 6.94615 82.3006 6.21111 81.8948 5.45769C81.4704 4.70427 81.0092 3.98761 80.5111 3.30769C79.7732 2.27863 79.0168 1.47009 78.242 0.882051C77.4487 0.294017 76.6277 0 75.7791 0C75.1703 0 74.58 0.110256 74.0081 0.330769C73.4177 0.532906 72.855 0.808547 72.32 1.15769C71.785 1.50684 71.2869 1.9203 70.8257 2.39808C70.3461 2.85748 69.9125 3.33526 69.5251 3.83141L69.7465 4.18974C70.1892 4.06111 70.6136 3.98761 71.0194 3.96923C71.4068 3.93248 71.8865 3.9141 72.4584 3.9141C73.2517 3.9141 74.2387 4.07949 75.4194 4.41026C76.6001 4.74103 77.8546 5.34744 79.1828 6.22949C79.7178 6.57863 80.096 6.94615 80.3174 7.33205C80.5204 7.71795 80.631 8.08547 80.6495 8.43462C80.6679 8.9859 80.216 9.57393 79.2935 10.1987C78.3527 10.8235 77.0152 11.3288 75.281 11.7147C73.4362 10.6122 71.7574 9.69338 70.2446 8.95833C68.7134 8.20492 67.2836 7.62607 65.9553 7.2218L65.8446 7.33205C66.0845 7.93846 66.352 8.53568 66.6471 9.12372C66.9423 9.71175 67.2375 10.263 67.5327 10.7776C67.8278 11.2921 68.1138 11.7515 68.3905 12.1558C68.6672 12.56 68.9163 12.8816 69.1377 13.1205C70.0048 14.0393 71.3607 14.8295 73.2056 15.491C76.1389 16.5385 78.3803 17.9259 79.93 19.6532C81.4797 21.3622 82.2545 23.4203 82.2545 25.8276C82.2545 29.4109 80.3728 32.2868 76.6093 34.4551C72.8458 36.6603 67.9016 37.7628 61.7768 37.7628C60.5592 37.7628 58.9911 37.6801 57.0724 37.5147L57.0171 38.3692Z" fill="url(#paint0_linear_4_208)"/>
<path d="M100.8 33.3421C99.6623 33.3421 98.74 32.4199 98.74 31.2822V30.733C98.74 30.4996 98.692 30.2687 98.5989 30.0547C98.5058 29.8406 98.4578 29.6097 98.4578 29.3763V24.425C98.4578 23.4844 98.1662 22.7507 97.583 22.2239C97.0187 21.6972 96.1439 21.4338 94.9587 21.4338C94.1497 21.4338 93.3502 21.5655 92.5601 21.8289C92.4908 21.8508 92.4225 21.8736 92.355 21.897C91.3688 22.2404 90.1401 21.9791 89.6628 21.0503C89.2854 20.3155 89.503 19.4011 90.2504 19.0495C90.7826 18.7992 91.3643 18.5875 91.9957 18.4144C93.1621 18.0946 94.3473 17.9347 95.5513 17.9347C97.8652 17.9347 99.6618 18.4803 100.941 19.5714C102.22 20.6625 102.86 22.365 102.86 24.679V31.2822C102.86 32.4199 101.938 33.3421 100.8 33.3421ZM94.1121 33.5679C92.9269 33.5679 91.9111 33.3704 91.0645 32.9753C90.2179 32.5614 89.5689 32.0064 89.1174 31.3104C88.6659 30.6143 88.4402 29.8336 88.4402 28.9682C88.4402 28.0652 88.6565 27.2751 89.0892 26.5979C89.5407 25.9206 90.2462 25.3939 91.2056 25.0176C92.165 24.6225 93.4161 24.425 94.9587 24.425H97.71C98.4191 24.425 98.994 24.9999 98.994 25.709C98.994 26.4181 98.4191 26.9929 97.71 26.9929H95.4384C94.4037 26.9929 93.6888 27.1622 93.2938 27.5009C92.9175 27.8395 92.7294 28.2628 92.7294 28.7707C92.7294 29.3351 92.9457 29.7866 93.3784 30.1252C93.8299 30.445 94.4413 30.6049 95.2127 30.6049C95.9463 30.6049 96.6048 30.4356 97.188 30.097C97.2248 30.0744 97.2609 30.0512 97.2965 30.0274C97.8335 29.6672 98.8585 29.747 99.063 30.3604C99.1098 30.5009 99.1118 30.6534 99.0591 30.7917C98.7268 31.6645 98.1689 32.3359 97.3855 32.806C96.5389 33.3139 95.4478 33.5679 94.1121 33.5679Z" fill="black"/>
<path d="M113.473 33.5679C112.043 33.5679 110.754 33.2481 109.607 32.6084C108.459 31.95 107.547 31.0376 106.87 29.8712C106.211 28.7049 105.882 27.3315 105.882 25.7513C105.882 24.1522 106.211 22.7695 106.87 21.6031C107.547 20.4368 108.459 19.5338 109.607 18.8941C110.754 18.2545 112.043 17.9347 113.473 17.9347C114.752 17.9347 115.871 18.2169 116.831 18.7813C117.79 19.3456 118.533 20.2016 119.06 21.3492C119.587 22.4967 119.85 23.9641 119.85 25.7513C119.85 27.5197 119.596 28.987 119.088 30.1534C118.58 31.301 117.847 32.1569 116.887 32.7213C115.947 33.2857 114.809 33.5679 113.473 33.5679ZM114.235 29.9559C114.95 29.9559 115.599 29.7866 116.182 29.4479C116.765 29.1093 117.226 28.6296 117.565 28.0088C117.922 27.3692 118.101 26.6167 118.101 25.7513C118.101 24.8671 117.922 24.1146 117.565 23.4938C117.226 22.873 116.765 22.3933 116.182 22.0546C115.599 21.716 114.95 21.5467 114.235 21.5467C113.501 21.5467 112.843 21.716 112.259 22.0546C111.676 22.3933 111.206 22.873 110.848 23.4938C110.51 24.1146 110.341 24.8671 110.341 25.7513C110.341 26.6167 110.51 27.3692 110.848 28.0088C111.206 28.6296 111.676 29.1093 112.259 29.4479C112.843 29.7866 113.501 29.9559 114.235 29.9559ZM120.316 33.3421C119.155 33.3421 118.214 32.4009 118.214 31.2398V30.2381L118.298 25.7231L118.016 21.2363V14.6049C118.016 13.3893 119.002 12.4038 120.217 12.4038C121.433 12.4038 122.418 13.3893 122.418 14.6049V31.2398C122.418 32.4009 121.477 33.3421 120.316 33.3421Z" fill="black"/>
<path d="M137.865 33.3421C136.727 33.3421 135.805 32.4199 135.805 31.2822V30.733C135.805 30.4996 135.757 30.2687 135.664 30.0547C135.571 29.8406 135.522 29.6097 135.522 29.3763V24.425C135.522 23.4844 135.231 22.7507 134.648 22.2239C134.083 21.6972 133.209 21.4338 132.023 21.4338C131.214 21.4338 130.415 21.5655 129.625 21.8289C129.555 21.8508 129.487 21.8736 129.42 21.897C128.433 22.2404 127.205 21.9791 126.728 21.0503C126.35 20.3155 126.568 19.4011 127.315 19.0495C127.847 18.7992 128.429 18.5875 129.06 18.4144C130.227 18.0946 131.412 17.9347 132.616 17.9347C134.93 17.9347 136.726 18.4803 138.006 19.5714C139.285 20.6625 139.925 22.365 139.925 24.679V31.2822C139.925 32.4199 139.002 33.3421 137.865 33.3421ZM131.177 33.5679C129.992 33.5679 128.976 33.3704 128.129 32.9753C127.283 32.5614 126.634 32.0064 126.182 31.3104C125.731 30.6143 125.505 29.8336 125.505 28.9682C125.505 28.0652 125.721 27.2751 126.154 26.5979C126.605 25.9206 127.311 25.3939 128.27 25.0176C129.23 24.6225 130.481 24.425 132.023 24.425H134.775C135.484 24.425 136.059 24.9999 136.059 25.709C136.059 26.4181 135.484 26.9929 134.775 26.9929H132.503C131.468 26.9929 130.754 27.1622 130.358 27.5009C129.982 27.8395 129.794 28.2628 129.794 28.7707C129.794 29.3351 130.01 29.7866 130.443 30.1252C130.895 30.445 131.506 30.6049 132.277 30.6049C133.011 30.6049 133.669 30.4356 134.253 30.097C134.289 30.0744 134.326 30.0512 134.361 30.0274C134.898 29.6672 135.923 29.747 136.128 30.3604C136.174 30.5009 136.176 30.6534 136.124 30.7917C135.791 31.6645 135.234 32.3359 134.45 32.806C133.604 33.3139 132.512 33.5679 131.177 33.5679Z" fill="black"/>
<defs>
<linearGradient id="paint0_linear_4_208" x1="71.0748" y1="0" x2="71.0748" y2="43" gradientUnits="userSpaceOnUse">
<stop offset="0.544792" stop-color="#BB0914"/>
<stop offset="0.544892" stop-color="#0E6146"/>
</linearGradient>
</defs>
</svg>
