<svg width="25" height="24" viewBox="0 0 25 24" fill="none" xmlns="http://www.w3.org/2000/svg">
<path d="M12.5 20.4L12.116 19.968C11.876 19.728 6.25999 13.104 6.25999 9.12C6.25999 5.664 9.04399 2.88 12.5 2.88C15.956 2.88 18.74 5.664 18.74 9.12C18.74 13.104 13.124 19.728 12.884 20.016L12.5 20.4ZM12.5 3.84C9.57199 3.84 7.21999 6.192 7.21999 9.12C7.21999 12.192 11.252 17.376 12.5 18.912C13.748 17.376 17.78 12.192 17.78 9.12C17.78 6.192 15.428 3.84 12.5 3.84Z" fill="#0E6146"/>
<path d="M12.5 11.52C11.156 11.52 10.1 10.464 10.1 9.12C10.1 7.776 11.156 6.72 12.5 6.72C13.844 6.72 14.9 7.776 14.9 9.12C14.9 10.464 13.844 11.52 12.5 11.52ZM12.5 7.68C11.684 7.68 11.06 8.304 11.06 9.12C11.06 9.936 11.684 10.56 12.5 10.56C13.316 10.56 13.94 9.936 13.94 9.12C13.94 8.304 13.316 7.68 12.5 7.68Z" fill="#0E6146"/>
</svg>
