<?xml version="1.0" standalone="no"?>
<!DOCTYPE svg PUBLIC "-//W3C//DTD SVG 20010904//EN"
 "http://www.w3.org/TR/2001/REC-SVG-20010904/DTD/svg10.dtd">
<svg version="1.0" xmlns="http://www.w3.org/2000/svg"
 width="2256.000000pt" height="2256.000000pt" viewBox="0 0 2256.000000 2256.000000"
 preserveAspectRatio="xMidYMid meet">
<metadata>
Created by potrace 1.14, written by Peter Selinger 2001-2017
</metadata>
<g transform="translate(0.000000,2256.000000) scale(0.100000,-0.100000)"
fill="#000000" stroke="none">
<path d="M11980 14705 c-197 -40 -402 -148 -584 -309 -74 -65 -266 -273 -266
-288 0 -5 7 -19 15 -32 15 -23 17 -23 74 -10 91 21 342 34 464 23 172 -15 360
-59 534 -125 202 -77 487 -246 576 -343 81 -87 127 -218 105 -297 -35 -129
-216 -268 -481 -371 -94 -36 -327 -103 -359 -103 -11 0 -115 55 -231 122 -295
170 -738 391 -952 475 -237 93 -314 118 -327 105 -13 -13 49 -160 153 -361
141 -270 264 -462 370 -576 120 -128 352 -264 624 -365 488 -182 764 -346
1031 -614 300 -302 434 -624 434 -1044 0 -250 -40 -425 -145 -637 -165 -333
-456 -600 -902 -828 -445 -227 -923 -357 -1563 -423 -240 -24 -858 -30 -1141
-10 -315 22 -280 29 -277 -50 l3 -66 255 -103 c140 -56 550 -223 910 -369
l655 -267 170 11 c813 52 1407 291 1889 759 289 282 470 604 555 986 59 263
64 623 15 935 -76 476 -278 913 -724 1560 -51 74 -94 140 -97 146 -2 5 22 18
53 28 93 29 245 113 330 180 192 155 297 359 281 550 -21 240 -241 745 -477
1096 -293 434 -557 632 -840 629 -36 -1 -94 -7 -130 -14z"/>
<path d="M19182 12729 c-114 -15 -217 -94 -270 -207 l-27 -57 -3 -448 -3 -448
-50 45 c-188 169 -437 247 -744 232 -324 -15 -594 -132 -807 -349 -213 -216
-318 -479 -334 -832 -14 -310 63 -601 213 -814 175 -247 426 -411 733 -477
120 -26 401 -26 520 -1 175 38 329 118 447 232 31 30 58 55 59 55 1 0 11 -27
23 -60 26 -72 94 -145 166 -180 72 -35 189 -40 267 -10 75 28 149 98 185 175
l28 60 0 1405 0 1405 -23 57 c-61 151 -213 238 -380 217z m-754 -1474 c212
-50 383 -224 443 -452 16 -59 21 -109 21 -203 0 -215 -56 -364 -187 -496 -117
-119 -253 -174 -429 -174 -177 0 -314 56 -437 179 -87 87 -136 177 -164 300
-21 95 -21 282 -1 380 47 223 222 406 446 465 72 19 229 20 308 1z"/>
<path d="M265 12537 c-109 -37 -186 -103 -232 -202 l-28 -60 0 -1315 0 -1315
28 -57 c17 -34 50 -77 83 -107 175 -160 457 -94 546 128 l23 56 5 784 5 783
424 -696 c232 -383 437 -711 454 -728 97 -97 263 -107 377 -24 47 34 34 12
769 1246 l146 245 6 -805 c7 -882 4 -840 68 -933 35 -51 83 -90 149 -120 36
-16 67 -21 132 -22 73 0 93 4 141 28 67 32 142 109 172 175 l22 47 3 1045 c1
575 -1 1169 -6 1320 -7 268 -8 276 -34 332 -34 72 -103 142 -176 176 -51 24
-69 27 -167 27 -101 0 -115 -2 -169 -29 -33 -16 -78 -48 -100 -70 -27 -27
-231 -363 -576 -944 -294 -496 -537 -902 -541 -902 -4 0 -252 406 -551 901
-358 595 -558 917 -586 945 -68 68 -139 96 -252 101 -61 2 -109 -2 -135 -10z"/>
<path d="M5277 11849 c-337 -29 -625 -156 -842 -374 -204 -204 -314 -436 -346
-732 -26 -242 20 -503 124 -708 140 -277 418 -508 732 -609 239 -77 540 -92
792 -40 532 108 922 506 997 1016 86 579 -172 1073 -689 1319 -220 105 -499
152 -768 128z m313 -594 c208 -56 373 -230 426 -450 12 -48 17 -111 17 -205
-1 -117 -4 -147 -28 -225 -35 -119 -74 -185 -159 -271 -139 -140 -337 -198
-546 -160 -188 34 -348 152 -430 318 -52 106 -70 193 -70 343 0 150 18 237 70
343 84 169 253 292 444 323 67 10 208 3 276 -16z"/>
<path d="M8020 11850 c-507 -37 -875 -271 -954 -610 -20 -84 -20 -275 -1 -358
40 -170 144 -293 325 -386 145 -74 259 -104 600 -156 407 -62 505 -103 517
-213 11 -99 -48 -171 -172 -210 -62 -20 -92 -22 -265 -22 -224 0 -327 15 -505
73 -185 60 -316 44 -414 -50 -111 -106 -119 -272 -18 -365 72 -67 322 -143
582 -178 142 -19 458 -22 590 -6 323 41 606 176 742 356 55 71 106 179 122
253 16 76 13 255 -4 331 -44 184 -191 335 -415 425 -85 35 -277 81 -420 101
-478 68 -610 124 -610 259 0 110 100 189 273 217 129 20 365 6 525 -30 73 -17
158 -31 189 -31 177 0 313 121 313 278 0 127 -55 192 -198 236 -227 69 -550
104 -802 86z"/>
<path d="M10447 11850 c-248 -19 -525 -88 -695 -174 -85 -43 -128 -122 -120
-221 15 -184 219 -298 428 -240 267 74 381 90 540 75 175 -17 290 -70 369
-170 55 -69 83 -148 89 -249 4 -77 3 -84 -13 -77 -67 25 -121 28 -433 23 -446
-7 -577 -29 -792 -135 -77 -38 -110 -61 -176 -127 -87 -87 -129 -158 -160
-275 -24 -90 -24 -282 0 -370 72 -264 300 -462 610 -530 152 -33 430 -29 581
10 123 31 253 99 328 173 35 34 73 75 84 92 l21 29 12 -44 c25 -96 98 -182
189 -223 67 -31 198 -30 262 2 75 36 125 86 161 159 l33 67 3 590 c3 634 -2
749 -43 912 -96 382 -389 623 -837 687 -138 19 -309 25 -441 16z m615 -1676
l3 -221 -62 0 c-52 0 -74 -7 -140 -40 -133 -69 -172 -78 -318 -78 -109 0 -140
4 -196 23 -125 43 -189 123 -197 247 -6 90 21 158 84 214 81 71 196 91 539 91
156 1 229 5 250 14 37 16 33 38 37 -250z"/>
<path d="M15065 11840 c-268 -31 -597 -131 -679 -208 -60 -57 -81 -153 -54
-246 18 -61 108 -148 178 -171 86 -30 182 -24 327 18 155 46 269 61 408 54
270 -13 422 -113 486 -318 16 -51 27 -189 16 -189 -2 0 -18 7 -36 16 -46 23
-729 15 -871 -10 -230 -41 -429 -138 -540 -263 -48 -54 -111 -179 -131 -263
-18 -71 -18 -269 0 -340 20 -80 71 -186 125 -257 84 -111 242 -217 391 -263
209 -64 520 -66 725 -4 136 40 303 157 362 251 l22 36 19 -58 c49 -152 162
-235 320 -235 58 0 83 5 132 29 69 32 136 99 168 169 22 47 22 48 22 692 0
689 -2 729 -51 898 -102 352 -374 573 -794 647 -112 20 -427 28 -545 15z m685
-1617 c0 -115 3 -224 6 -243 l6 -35 -69 0 c-61 0 -77 -5 -150 -43 -112 -57
-185 -75 -313 -76 -243 0 -376 92 -388 270 -9 138 55 233 185 275 62 20 94 23
368 28 209 4 306 10 320 18 11 7 23 13 28 13 4 0 7 -93 7 -207z"/>
<path d="M20995 11839 c-260 -27 -597 -130 -679 -207 -97 -91 -85 -260 26
-357 101 -89 222 -101 425 -42 155 46 269 61 408 54 184 -9 298 -51 384 -142
79 -84 121 -188 121 -301 l0 -63 -35 15 c-27 11 -97 14 -350 14 -419 0 -579
-19 -761 -89 -224 -87 -355 -216 -421 -416 -23 -69 -26 -98 -27 -210 -1 -139
17 -222 69 -325 83 -163 249 -298 447 -365 206 -68 526 -72 738 -9 136 40 303
157 362 251 l22 36 16 -50 c37 -114 110 -193 209 -228 25 -8 76 -15 115 -15
57 0 83 6 131 29 69 32 137 100 168 169 22 47 22 52 22 697 0 588 -2 660 -19
755 -83 475 -394 740 -938 799 -111 13 -315 12 -433 0z m685 -1616 c0 -115 3
-224 6 -243 l6 -35 -69 0 c-61 0 -77 -5 -150 -43 -112 -57 -185 -75 -313 -76
-177 0 -298 51 -358 152 -24 42 -27 57 -27 137 0 80 3 95 28 137 35 60 80 95
159 121 56 18 97 21 363 26 209 4 306 10 320 18 11 7 23 13 28 13 4 0 7 -93 7
-207z"/>
</g>
</svg>
